<mxfile host="app.diagrams.net" modified="2023-08-05T19:13:51.213Z" agent="Mozilla/5.0 (X11; Linux x86_64; rv:102.0) Gecko/20100101 Firefox/102.0" version="21.6.6" etag="j7i2oDUNUigMWoax78E_" type="github">
  <diagram name="Page-1" id="RJpT9Osy3CN66tT81q7r">
    <mxGraphModel>
      <root>
        <mxCell id="0" />
        <mxCell id="1" parent="0" />
      </root>
    </mxGraphModel>
  </diagram>
</mxfile>
